<svg width="250" height="68" viewBox="0 0 250 68" fill="none" xmlns="http://www.w3.org/2000/svg">
<path fill-rule="evenodd" clip-rule="evenodd" d="M35.8522 0.161319C36.285 0.0519979 36.7488 -0.00280857 37.2163 0.000110782C38.1358 0.00604232 39.0149 0.234612 39.6648 0.636756L73.3293 21.45C73.6558 21.6517 73.9147 21.8912 74.0914 22.1548C74.2681 22.4185 74.359 22.701 74.359 22.9863C74.359 23.2717 74.2681 23.5542 74.0914 23.8178C73.9147 24.0814 73.6558 24.321 73.3293 24.5227L39.6648 45.3359C39.3386 45.5378 38.9512 45.6979 38.5248 45.8071C38.0984 45.9163 37.6414 45.9726 37.1799 45.9726C36.7183 45.9726 36.2613 45.9163 35.8349 45.8071C35.4086 45.6979 35.0212 45.5378 34.6949 45.3359L1.02966 24.5218C0.70323 24.3201 0.444281 24.0806 0.267607 23.817C0.0909342 23.5534 0 23.2708 0 22.9855C0 22.7002 0.0909342 22.4176 0.267607 22.154C0.444281 21.8904 0.70323 21.6509 1.02966 21.4492L34.6957 0.636756C35.0261 0.432278 35.4193 0.27064 35.8522 0.161319ZM65.8782 22.9863L37.1799 5.24405L8.48307 22.9847L37.1799 40.727L65.8782 22.9863ZM1.03041 32.3819L3.51686 30.8456L8.48456 33.9165L8.48158 33.9182L37.1799 51.6605L65.8767 33.9182L65.8737 33.9165L70.8429 30.8456L73.3279 32.3819C73.6544 32.5835 73.9135 32.823 74.0903 33.0866C74.2671 33.3501 74.3581 33.6327 74.3583 33.918C74.3584 34.2034 74.2676 34.4859 74.0911 34.7496C73.9145 35.0132 73.6557 35.2528 73.3293 35.4545L39.6648 56.2678C39.3386 56.4696 38.9512 56.6297 38.5248 56.739C38.0984 56.8482 37.6414 56.9044 37.1799 56.9044C36.7183 56.9044 36.2613 56.8482 35.8349 56.739C35.4086 56.6297 35.0212 56.4696 34.6949 56.2678L1.03041 35.4545C0.703974 35.2528 0.445024 35.0133 0.268351 34.7497C0.0916778 34.4861 0.000743556 34.2036 0.000743556 33.9182C0.000743556 33.6329 0.0916778 33.3503 0.268351 33.0867C0.445024 32.8231 0.703974 32.5836 1.03041 32.3819ZM1.03041 43.3146L3.51686 41.7774L8.48456 44.8484L8.48158 44.8501L37.1799 62.5924L65.8767 44.8501L65.8737 44.8484L70.8429 41.7774L73.3279 43.3137C73.6544 43.5154 73.9135 43.7549 74.0903 44.0184C74.2671 44.282 74.3581 44.5645 74.3583 44.8499C74.3584 45.1352 74.2676 45.4178 74.0911 45.6814C73.9145 45.9451 73.6557 46.1846 73.3293 46.3864L39.6648 67.1997C39.3386 67.4015 38.9512 67.5616 38.5248 67.6708C38.0984 67.7801 37.6414 67.8363 37.1799 67.8363C36.7183 67.8363 36.2613 67.7801 35.8349 67.6708C35.4086 67.5616 35.0212 67.4015 34.6949 67.1997L1.03041 46.3872C0.703974 46.1855 0.445024 45.946 0.268351 45.6824C0.0916778 45.4188 0.000743556 45.1363 0.000743556 44.8509C0.000743556 44.5656 0.0916778 44.283 0.268351 44.0194C0.445024 43.7558 0.703974 43.5163 1.03041 43.3146ZM157.91 42.6899C159.726 42.6899 161.057 42.3455 161.902 41.6567C162.748 40.9366 163.17 40.0443 163.17 38.9798C163.17 38.0092 162.841 37.2422 162.184 36.6786C161.526 36.0837 160.525 35.5828 159.178 35.1758L156.173 34.2365C154.983 33.8608 153.903 33.4381 152.932 32.9685C151.962 32.4988 151.132 31.9509 150.443 31.3248C149.754 30.6673 149.222 29.9158 148.846 29.0705C148.471 28.1938 148.283 27.1606 148.283 25.9709C148.283 23.4349 149.238 21.4311 151.148 19.9596C153.057 18.4567 155.672 17.7053 158.99 17.7053C160.305 17.7053 161.511 17.8149 162.607 18.0341C163.734 18.2219 164.704 18.5037 165.518 18.8794C166.332 19.2238 166.959 19.6621 167.397 20.1944C167.867 20.7266 168.101 21.3215 168.101 21.979C168.101 22.6052 167.945 23.1531 167.632 23.6227C167.35 24.0611 166.99 24.4211 166.552 24.7029C165.8 24.1706 164.798 23.7167 163.546 23.3409C162.325 22.9339 160.979 22.7304 159.507 22.7304C157.879 22.7304 156.642 23.0279 155.797 23.6227C154.952 24.1863 154.529 24.969 154.529 25.9709C154.529 26.7849 154.811 27.4111 155.374 27.8494C155.969 28.2878 156.893 28.7104 158.145 29.1175L160.822 29.9628C163.546 30.7768 165.659 31.8883 167.162 33.2972C168.665 34.7061 169.416 36.616 169.416 39.0268C169.416 40.3105 169.166 41.4845 168.665 42.5491C168.164 43.6136 167.428 44.5372 166.458 45.3199C165.518 46.0713 164.329 46.6505 162.888 47.0576C161.48 47.4959 159.867 47.715 158.051 47.715C156.611 47.715 155.28 47.5898 154.059 47.3393C152.87 47.0889 151.836 46.7601 150.96 46.3531C150.083 45.9148 149.394 45.4138 148.893 44.8503C148.424 44.2554 148.189 43.6136 148.189 42.9248C148.189 42.2046 148.392 41.5941 148.799 41.0932C149.238 40.5609 149.739 40.1696 150.302 39.9191C151.085 40.6079 152.118 41.2497 153.402 41.8446C154.685 42.4082 156.188 42.6899 157.91 42.6899ZM125.299 43.864C125.706 42.6117 126.082 41.4063 126.426 40.2478H136.946L138.355 44.9442C138.605 45.7895 138.95 46.4157 139.388 46.8227C139.858 47.1984 140.64 47.3863 141.736 47.3863C142.488 47.3863 143.129 47.2611 143.662 47.0106C144.225 46.7914 144.663 46.5096 144.977 46.1652C144.413 44.3493 143.771 42.2986 143.051 40.013C142.331 37.7275 141.58 35.3949 140.797 33.0154C140.045 30.636 139.294 28.3347 138.543 26.1118C137.791 23.8575 137.102 21.8694 136.476 20.1474C136.226 19.4273 135.646 18.9107 134.739 18.5976C133.831 18.2532 132.829 18.081 131.733 18.081C130.919 18.081 130.105 18.1906 129.291 18.4098C128.508 18.6289 127.913 18.8481 127.506 19.0673C127.162 19.9752 126.739 21.071 126.238 22.3547C125.768 23.6071 125.268 24.969 124.735 26.4405C124.234 27.8808 123.702 29.3836 123.139 30.949C122.575 32.4832 122.043 33.986 121.542 35.4575C121.072 36.8978 120.618 38.2441 120.18 39.4964C119.773 40.7175 119.444 41.7663 119.194 42.643L118.771 43.911C118.677 44.2554 118.63 44.6154 118.63 44.9912C118.63 45.7739 118.927 46.3844 119.522 46.8227C120.117 47.2297 120.947 47.4333 122.011 47.4333C122.544 47.4333 122.982 47.3863 123.326 47.2924C123.702 47.1984 124.046 47.0889 124.36 46.9636C124.61 46.1496 124.923 45.1164 125.299 43.864ZM130.747 26.0648C131.091 25.0943 131.404 24.2176 131.686 23.4349H131.921L135.725 35.4575H127.553C127.897 34.4243 128.258 33.3755 128.633 32.311C129.009 31.2152 129.369 30.1507 129.713 29.1175C130.089 28.053 130.434 27.0354 130.747 26.0648ZM118.019 19.4899C117.894 19.0516 117.753 18.7072 117.597 18.4567H97.1207C96.4319 18.4567 95.884 18.6759 95.477 19.1142C95.1012 19.5212 94.9134 20.1631 94.9134 21.0397C94.9134 21.5407 94.976 21.9947 95.1012 22.4017C95.2578 22.8087 95.4143 23.1531 95.5709 23.4349H103.461V44.4276C103.461 45.4608 103.711 46.1966 104.212 46.6349C104.713 47.0732 105.558 47.2924 106.748 47.2924C107.312 47.2924 107.86 47.2454 108.392 47.1515C108.924 47.0576 109.316 46.9793 109.566 46.9167V23.4349H116.047C116.736 23.4349 117.268 23.2157 117.644 22.7774C118.051 22.3391 118.254 21.6972 118.254 20.8519C118.254 20.3509 118.176 19.8969 118.019 19.4899ZM180.928 46.9167V34.7531L190.226 44.9912C190.821 45.6173 191.432 46.1809 192.058 46.6818C192.684 47.1515 193.451 47.3863 194.359 47.3863C195.267 47.3863 196.034 47.1045 196.66 46.541C197.318 45.9461 197.662 45.132 197.694 44.0988C196.41 42.9091 194.844 41.328 192.997 39.3555C191.15 37.3831 189.005 35.1445 186.563 32.6397L194.5 24.7499C195.158 24.0924 195.643 23.5131 195.956 23.0122C196.3 22.4799 196.473 21.8851 196.473 21.2276C196.473 20.4135 196.128 19.7091 195.439 19.1142C194.782 18.5193 193.702 18.2219 192.199 18.2219L180.928 30.6203V20.9458C180.928 19.85 180.661 19.0986 180.129 18.6915C179.597 18.2845 178.767 18.081 177.64 18.081C177.108 18.081 176.56 18.128 175.996 18.2219C175.464 18.3158 175.073 18.3941 174.822 18.4567V44.4276C174.822 45.4921 175.057 46.2435 175.527 46.6818C176.028 47.0889 176.873 47.2924 178.063 47.2924C178.658 47.2924 179.206 47.2454 179.707 47.1515C180.239 47.0889 180.646 47.0106 180.928 46.9167ZM205.81 47.0576C204.808 47.0576 204.01 46.7601 203.415 46.1652C202.851 45.5704 202.569 44.772 202.569 43.7701V21.6972C202.569 20.6953 202.851 19.9126 203.415 19.349C204.01 18.7542 204.808 18.4567 205.81 18.4567H221.355C221.511 18.7072 221.652 19.0359 221.777 19.443C221.903 19.85 221.965 20.304 221.965 20.8049C221.965 21.6189 221.777 22.2451 221.402 22.6835C221.026 23.1218 220.509 23.3409 219.852 23.3409H208.487V30.0098H219.946C220.102 30.2602 220.243 30.589 220.369 30.996C220.525 31.3717 220.603 31.81 220.603 32.311C220.603 34.0017 219.883 34.847 218.443 34.847H208.487V42.1264H221.543C221.699 42.3768 221.84 42.7213 221.965 43.1596C222.122 43.5666 222.2 44.0206 222.2 44.5215C222.2 46.2122 221.48 47.0576 220.04 47.0576H205.81ZM249.483 22.5426C249.828 21.7285 250 21.1493 250 20.8049C250 19.9909 249.718 19.3647 249.155 18.9264C248.622 18.488 247.934 18.2689 247.088 18.2689C246.65 18.2689 246.18 18.3158 245.679 18.4098C245.21 18.5037 244.787 18.6602 244.411 18.8794C243.879 20.0065 243.362 21.1023 242.862 22.1669C242.392 23.2001 241.907 24.2333 241.406 25.2665L239.856 28.366C239.324 29.3992 238.76 30.4951 238.165 31.6535H237.93C237.711 31.2778 237.32 30.589 236.756 29.5871C236.224 28.5852 235.645 27.5207 235.019 26.3936C234.424 25.2664 233.845 24.2019 233.281 23.2001C232.749 22.1669 232.357 21.4311 232.107 20.9928C231.575 19.9909 231.027 19.2864 230.463 18.8794C229.931 18.4724 229.211 18.2689 228.303 18.2689C227.489 18.2689 226.816 18.4724 226.283 18.8794C225.751 19.2551 225.36 19.6778 225.109 20.1474C225.642 21.3372 226.299 22.6678 227.082 24.1393C227.865 25.5795 228.71 27.0511 229.618 28.5539C230.526 30.0567 231.449 31.5439 232.389 33.0154C233.328 34.487 234.22 35.8333 235.066 37.0543V44.4746C235.066 45.4764 235.3 46.1966 235.77 46.6349C236.24 47.0732 237.069 47.2924 238.259 47.2924C238.823 47.2924 239.355 47.2454 239.856 47.1515C240.388 47.0576 240.779 46.9793 241.03 46.9167V37.0073C242.627 34.5339 243.989 32.358 245.116 30.4794C246.243 28.6009 247.167 27.0041 247.887 25.6891C248.607 24.3741 249.139 23.3253 249.483 22.5426Z" fill="url(#paint0_linear_0_1)"/>
<defs>
<linearGradient id="paint0_linear_0_1" x1="37.1795" y1="0" x2="37.1795" y2="67.8363" gradientUnits="userSpaceOnUse">
<stop stop-color="white"/>
<stop offset="1" stop-color="#F2A259"/>
</linearGradient>
</defs>
</svg>
